<svg xmlns="http://www.w3.org/2000/svg" width="48" height="48" viewBox="0 0 256 256" fill="none" id="my-svg">
  <defs><pattern id="a" patternUnits="userSpaceOnUse" width="80" height="80" patternTransform="scale(3.19) rotate(0)"><rect x="0" y="0" width="100%" height="100%" fill="hsla(0,0%,100%,1)"></rect><path d="M-20.133 4.568C-13.178 4.932-6.452 7.376 0 10c6.452 2.624 13.036 5.072 20 5 6.967-.072 13.56-2.341 20-5 6.44-2.659 13.033-4.928 20-5 6.964-.072 13.548 2.376 20 5s13.178 5.068 20.133 5.432" stroke-width="30" stroke="#F79BD3" fill="none"></path><path d="M-20.133 24.568C-13.178 24.932-6.452 27.376 0 30c6.452 2.624 13.036 5.072 20 5 6.967-.072 13.56-2.341 20-5 6.44-2.659 13.033-4.928 20-5 6.964-.072 13.548 2.376 20 5s13.178 5.068 20.133 5.432" stroke-width="30" stroke="#EA1179" fill="none"></path><path d="M-20.133 44.568C-13.178 44.932-6.452 47.376 0 50c6.452 2.624 13.036 5.072 20 5 6.967-.072 13.56-2.341 20-5 6.44-2.659 13.033-4.928 20-5 6.964-.072 13.548 2.376 20 5s13.178 5.068 20.133 5.432" stroke-width="30" stroke="#9F0D7F" fill="none"></path><path d="M-20.133 64.568C-13.178 64.932-6.452 67.376 0 70c6.452 2.624 13.036 5.072 20 5 6.967-.072 13.56-2.341 20-5 6.44-2.659 13.033-4.928 20-5 6.964-.072 13.548 2.376 20 5s13.178 5.068 20.133 5.432" stroke-width="30" stroke="#241468" fill="none"></path></pattern>
    <linearGradient id="gradient1">
      <stop class="stop1" offset="0%" stop-color="#8f66ff"></stop>
      <stop class="stop2" offset="100%" stop-color="#3d12ff"></stop>
    </linearGradient>
  </defs>
  <rect id="backgr" width="256" height="256" fill="none" rx="60"></rect>
  <g id="group" transform="translate(0,0) scale(1)">
    <path d="M53.333 53.333C47.442 53.333 42.667 58.109 42.667 64.000C42.667 69.891 47.442 74.667 53.333 74.667H128.000C133.891 74.667 138.667 69.891 138.667 64.000C138.667 58.109 133.891 53.333 128.000 53.333H53.333Z" fill="url(#a)" stroke-width="14" id="filled" stroke="none" stroke-linecap="round" stroke-linejoin="round"></path>
    <path d="M160.000 53.333C154.109 53.333 149.333 58.109 149.333 64.000V106.667C149.333 112.558 154.109 117.333 160.000 117.333H202.667C208.558 117.333 213.333 112.558 213.333 106.667V64.000C213.333 58.109 208.558 53.333 202.667 53.333H160.000Z" fill="url(#a)" stroke-width="14" id="filled" stroke="none" stroke-linecap="round" stroke-linejoin="round"></path>
    <path d="M53.333 96.000C47.442 96.000 42.667 100.776 42.667 106.667C42.667 112.558 47.442 117.333 53.333 117.333H126.996C132.887 117.333 137.663 112.558 137.663 106.667C137.663 100.776 132.887 96.000 126.996 96.000H53.333Z" fill="url(#a)" stroke-width="14" id="filled" stroke="none" stroke-linecap="round" stroke-linejoin="round"></path>
    <path d="M53.333 138.667C47.442 138.667 42.667 143.442 42.667 149.333C42.667 155.225 47.442 160.000 53.333 160.000H202.667C208.558 160.000 213.333 155.225 213.333 149.333C213.333 143.442 208.558 138.667 202.667 138.667H53.333Z" fill="url(#a)" stroke-width="14" id="filled" stroke="none" stroke-linecap="round" stroke-linejoin="round"></path>
    <path d="M53.333 181.333C47.442 181.333 42.667 186.109 42.667 192.000C42.667 197.891 47.442 202.667 53.333 202.667H202.667C208.558 202.667 213.333 197.891 213.333 192.000C213.333 186.109 208.558 181.333 202.667 181.333H53.333Z" fill="url(#a)" stroke-width="14" id="filled" stroke="none" stroke-linecap="round" stroke-linejoin="round"></path>
  </g>
</svg>