<svg viewBox="0 0 200 200" xmlns="http://www.w3.org/2000/svg">
  <path fill="#24A148" d="M37.3,-65.9C47.9,-58.6,55.5,-47.5,61.8,-35.9C68.1,-24.3,73.1,-12.1,73.5,0.2C73.9,12.6,69.8,25.2,62.6,35.4C55.5,45.6,45.4,53.4,34.5,57.9C23.5,62.4,11.8,63.7,0.6,62.7C-10.6,61.8,-21.3,58.5,-31.9,53.8C-42.5,49.1,-53,42.9,-62.9,33.7C-72.8,24.5,-82.1,12.2,-83.9,-1C-85.7,-14.3,-80,-28.6,-71.1,-39.5C-62.1,-50.4,-50,-57.9,-37.6,-64.2C-25.2,-70.5,-12.6,-75.5,0.4,-76.2C13.4,-76.9,26.8,-73.3,37.3,-65.9Z" transform="translate(100 100)" />
</svg>