<svg viewBox="0 0 200 200" xmlns="http://www.w3.org/2000/svg">
  <path fill="#08BDBA" d="M39.7,-70.5C50.5,-62.5,57.6,-50,66.8,-37.4C76,-24.9,87.3,-12.5,90.2,1.7C93.1,15.8,87.7,31.6,76.7,41.1C65.8,50.6,49.3,53.8,35.6,59.3C21.9,64.9,11,72.8,-0.6,74C-12.3,75.1,-24.5,69.4,-36,62.5C-47.4,55.7,-58,47.7,-64.2,37C-70.4,26.4,-72.1,13.2,-70.9,0.7C-69.7,-11.9,-65.7,-23.8,-60,-35.1C-54.2,-46.4,-46.7,-57.1,-36.4,-65.3C-26.1,-73.5,-13.1,-79.2,0.7,-80.4C14.5,-81.6,28.9,-78.4,39.7,-70.5Z" transform="translate(100 100)" />
</svg>