<svg viewBox="0 0 200 200" xmlns="http://www.w3.org/2000/svg">
  <path fill="#FF0066" d="M41.3,-71.9C53.5,-64.5,63.4,-53.4,69.8,-40.8C76.2,-28.2,79,-14.1,78.8,-0.1C78.6,13.8,75.2,27.7,67.9,38.5C60.5,49.4,49.1,57.3,37.1,64.6C25.1,72,12.5,78.8,-1.6,81.6C-15.7,84.4,-31.5,83.1,-43.9,76C-56.3,68.9,-65.5,56,-71,42.3C-76.6,28.7,-78.5,14.4,-80.3,-1C-82.1,-16.5,-83.8,-32.9,-77.3,-44.9C-70.8,-56.8,-56.1,-64.2,-41.8,-70.5C-27.6,-76.8,-13.8,-81.8,0.4,-82.5C14.5,-83.1,29.1,-79.4,41.3,-71.9Z" transform="translate(100 100)" />
</svg>