<svg xmlns="http://www.w3.org/2000/svg" viewBox="0 0 1440 320"><path fill="#0099ff" fill-opacity="1" d="M0,32L21.8,48C43.6,64,87,96,131,122.7C174.5,149,218,171,262,165.3C305.5,160,349,128,393,106.7C436.4,85,480,75,524,101.3C567.3,128,611,192,655,234.7C698.2,277,742,299,785,256C829.1,213,873,107,916,80C960,53,1004,107,1047,144C1090.9,181,1135,203,1178,213.3C1221.8,224,1265,224,1309,224C1352.7,224,1396,224,1418,224L1440,224L1440,320L1418.2,320C1396.4,320,1353,320,1309,320C1265.5,320,1222,320,1178,320C1134.5,320,1091,320,1047,320C1003.6,320,960,320,916,320C872.7,320,829,320,785,320C741.8,320,698,320,655,320C610.9,320,567,320,524,320C480,320,436,320,393,320C349.1,320,305,320,262,320C218.2,320,175,320,131,320C87.3,320,44,320,22,320L0,320Z"></path></svg>